<svg width="134" height="120" viewBox="0 0 134 120" fill="none" xmlns="http://www.w3.org/2000/svg">
<path fill-rule="evenodd" clip-rule="evenodd" d="M37.2019 119.938C36.6618 119.901 36.1197 119.872 35.5786 119.824C32.55 119.546 29.7729 118.583 27.3074 116.84C23.0534 113.832 20.3335 109.832 19.249 104.798C18.844 102.907 18.7308 100.998 18.8544 99.0712C18.9946 96.8106 19.4557 94.6181 20.191 92.473C21.3657 89.0501 23.1374 85.9447 25.3798 83.0818C27.0696 80.9247 28.9827 78.9703 31.0909 77.1976C33.0642 75.5374 34.8546 73.7038 36.5331 71.7626C38.6445 69.3154 40.5544 66.7222 42.4416 64.1106C44.1095 61.8013 45.7486 59.4788 47.5193 57.2466C48.8508 55.563 50.2549 53.9415 51.819 52.4606C53.7768 50.6097 55.9369 49.0429 58.4835 48.0267C60.3934 47.263 62.378 46.8594 64.4439 46.8168C66.7786 46.764 69.0853 46.9902 71.3556 47.5318C74.8306 48.3644 77.8416 50.0154 80.4339 52.4169C82.2068 54.067 83.7074 55.9341 85.1032 57.8883C86.5832 59.9602 87.9428 62.1072 89.3447 64.2299C90.9255 66.6203 92.5581 68.9723 94.3817 71.1973C96.1982 73.4143 98.2027 75.4598 100.391 77.331C103.038 79.5946 105.388 82.1149 107.389 84.9432C109.095 87.3702 110.486 89.9501 111.457 92.7391C112.213 94.9114 112.689 97.1325 112.809 99.4286C112.995 102.915 112.379 106.249 110.759 109.385C109.259 112.291 107.089 114.625 104.362 116.479C102.358 117.841 100.197 118.876 97.8153 119.452C96.973 119.659 96.1161 119.807 95.251 119.888C95.1305 119.9 95.0143 119.922 94.8979 119.939C94.7847 120.002 94.66 119.955 94.5406 119.97C94.4419 119.983 94.3381 119.939 94.2446 120H92.0262C91.9379 119.937 91.8382 119.981 91.7447 119.97H91.2774C89.3851 119.91 87.548 119.524 85.7169 119.111C82.6136 118.404 79.5728 117.475 76.4859 116.707C73.9861 116.087 71.4654 115.584 68.9002 115.298C67.1222 115.1 65.3399 115.077 63.563 115.137C62.1412 115.184 60.7299 115.398 59.3319 115.651C56.5713 116.158 53.8658 116.884 51.1594 117.606C48.296 118.373 45.4328 119.137 42.502 119.604C41.3097 119.792 40.1153 119.953 38.9034 119.942C38.6551 119.939 38.408 119.976 38.1556 119.97C37.8336 119.952 37.5176 120.009 37.2019 119.938Z" fill="url(#paint0_linear_69_658)"/>
<path fill-rule="evenodd" clip-rule="evenodd" d="M91.9 0.050354C95.8902 0.518903 98.9385 2.49856 101.267 5.62221C102.863 7.76413 103.866 10.1657 104.488 12.7337C105.02 14.9456 105.221 17.1899 105.145 19.4606C105.005 23.6328 104.001 27.5963 102.146 31.3567C100.862 33.9621 99.2032 36.3119 97.0887 38.3383C95.2048 40.1395 93.0746 41.5785 90.5883 42.4763C88.8415 43.1061 87.0458 43.4174 85.1847 43.3089C81.9631 43.1274 79.2275 41.8769 76.929 39.6933C74.9692 37.8293 73.6334 35.5759 72.7092 33.0809C72.0632 31.3365 71.6593 29.5375 71.4495 27.6988C71.3041 26.4382 71.2459 25.1766 71.2875 23.914C71.383 20.9353 71.9303 18.0347 72.9221 15.2185C73.9753 12.2206 75.4667 9.45716 77.5032 6.98551C79.2168 4.90647 81.2193 3.149 83.6226 1.85087C85.3881 0.89552 87.2691 0.277893 89.2817 0.0557818C89.343 0.0223132 89.4095 0.0365121 89.4729 0.0324554H89.664C89.7564 0.0212995 89.8551 0.0649068 89.9361 0H91.2436C91.3288 0.0659219 91.4233 0.0223139 91.5157 0.0324554H91.7078C91.7691 0.0314413 91.8377 0.0148583 91.9 0.050354Z" fill="url(#paint1_linear_69_658)"/>
<path fill-rule="evenodd" clip-rule="evenodd" d="M0.120506 46.0585C0.182822 44.8689 0.401961 43.7015 0.721836 42.5535C1.34082 40.3213 2.35552 38.2878 3.93522 36.5455C5.70079 34.6013 7.884 33.3438 10.4981 32.8367C12.6209 32.427 14.7157 32.6024 16.7752 33.2221C19.1421 33.9361 21.2358 35.15 23.0969 36.7302C25.9883 39.1774 28.0613 42.1883 29.4965 45.6336C30.2474 47.4378 30.7666 49.306 31.0543 51.2327C31.1946 52.1678 31.2611 53.1079 31.2808 54.053C31.3151 55.8471 31.1302 57.6117 30.6753 59.3481C30.0677 61.6645 29.0447 63.7719 27.4141 65.5771C25.5425 67.647 23.2101 68.9361 20.413 69.3793C18.3608 69.7049 16.3438 69.4858 14.3697 68.8631C11.7151 68.0213 9.43955 66.5761 7.43618 64.7049C5.48157 62.8845 3.92795 60.771 2.71795 58.4201C1.53087 56.1139 0.712443 53.683 0.317804 51.1262C0.249259 50.6738 0.193188 50.2215 0.129835 49.7712C0.0810229 49.5643 0.099696 49.3544 0.0498443 49.1485C0.0259569 49.0623 0.039472 48.9812 0.0353175 48.893C0.0176617 48.7834 0.0685454 48.6668 0 48.5573V46.9001C0.105935 46.749 0.0540126 46.5806 0.0654373 46.4184C0.0747844 46.2987 0.0436513 46.17 0.120506 46.0585Z" fill="url(#paint2_linear_69_658)"/>
<path fill-rule="evenodd" clip-rule="evenodd" d="M28.1354 19.4725C28.1489 16.1825 28.6287 13.215 29.7556 10.3591C30.6062 8.19991 31.7735 6.22528 33.3989 4.5255C35.1499 2.69088 37.2301 1.37441 39.7384 0.755722C42.2476 0.133032 44.7132 0.310516 47.1372 1.16747C49.2725 1.92303 51.1346 3.11568 52.7892 4.62076C55.4303 7.01928 57.3216 9.91586 58.6685 13.162C59.5243 15.2268 60.1142 17.3607 60.4507 19.5605C60.6418 20.8079 60.7519 22.0655 60.7778 23.3321C60.8059 24.9253 60.7031 26.5136 60.4341 28.0864C59.8743 31.3733 58.7318 34.4361 56.6953 37.143C55.4282 38.8224 53.89 40.2107 52.0021 41.2108C49.8927 42.3274 47.6337 42.7939 45.244 42.6134C43.0838 42.4521 41.0919 41.7625 39.2339 40.6864C36.8099 39.2849 34.848 37.3944 33.2142 35.1704C31.2773 32.5284 29.9458 29.6076 29.1035 26.4687C28.6424 24.7518 28.3475 23.0053 28.2135 21.2347C28.1595 20.5714 28.1125 19.9035 28.1354 19.4725Z" fill="url(#paint3_linear_69_658)"/>
<path fill-rule="evenodd" clip-rule="evenodd" d="M133.999 47.9872V48.3696C133.85 51.5419 132.98 54.5287 131.577 57.3763C130.472 59.6085 129.062 61.6419 127.317 63.445C125.077 65.7624 122.479 67.5698 119.39 68.6547C117.54 69.3048 115.634 69.6243 113.664 69.5188C110.756 69.3585 108.217 68.3292 106.082 66.3932C104.32 64.7928 103.156 62.8243 102.424 60.6084C101.765 58.6227 101.498 56.5751 101.565 54.49C101.709 49.906 103.194 45.7388 105.765 41.9254C106.633 40.6343 107.629 39.4417 108.746 38.3513C111.043 36.1171 113.67 34.398 116.78 33.4244C118.549 32.8747 120.357 32.6232 122.209 32.7642C125.038 32.9782 127.505 34.0228 129.575 35.9293C131.442 37.6493 132.62 39.7731 133.331 42.1583C133.724 43.4757 133.953 44.8236 134 46.1978V46.5832C133.984 47.0487 133.985 47.5177 133.999 47.9872Z" fill="url(#paint4_linear_69_658)"/>
<defs>
<linearGradient id="paint0_linear_69_658" x1="36" y1="18" x2="93" y2="120" gradientUnits="userSpaceOnUse">
<stop stop-color="#84CDBC"/>
<stop offset="0.69991" stop-color="#CFDBA9"/>
<stop offset="1" stop-color="#FFCC80"/>
</linearGradient>
<linearGradient id="paint1_linear_69_658" x1="36" y1="18" x2="93" y2="120" gradientUnits="userSpaceOnUse">
<stop stop-color="#84CDBC"/>
<stop offset="0.69991" stop-color="#CFDBA9"/>
<stop offset="1" stop-color="#FFCC80"/>
</linearGradient>
<linearGradient id="paint2_linear_69_658" x1="36" y1="18" x2="93" y2="120" gradientUnits="userSpaceOnUse">
<stop stop-color="#84CDBC"/>
<stop offset="0.69991" stop-color="#CFDBA9"/>
<stop offset="1" stop-color="#FFCC80"/>
</linearGradient>
<linearGradient id="paint3_linear_69_658" x1="36" y1="18" x2="93" y2="120" gradientUnits="userSpaceOnUse">
<stop stop-color="#84CDBC"/>
<stop offset="0.69991" stop-color="#CFDBA9"/>
<stop offset="1" stop-color="#FFCC80"/>
</linearGradient>
<linearGradient id="paint4_linear_69_658" x1="36" y1="18" x2="93" y2="120" gradientUnits="userSpaceOnUse">
<stop stop-color="#84CDBC"/>
<stop offset="0.69991" stop-color="#CFDBA9"/>
<stop offset="1" stop-color="#FFCC80"/>
</linearGradient>
</defs>
</svg>
